<svg xmlns="http://www.w3.org/2000/svg" viewBox="0 0 550 550"><defs><style>.cls-1{fill:#666;}.cls-2{fill:#4d4d4d;}.cls-3,.cls-6{font-size:236.79px;font-family:TinyBoxCollageBitA12, Tiny Box CollageBitA12;}.cls-3,.cls-4{fill:#0071bc;}.cls-4,.cls-5{font-size:169.61px;font-family:Magneto-Bold, Magneto;font-weight:700;}.cls-5,.cls-6{fill:#29abe2;}</style></defs><title>logo_kmarket</title><g id="Calque_2" data-name="Calque 2"><g id="Calque_1-2" data-name="Calque 1"><rect class="cls-1" x="0.5" y="0.5" width="549" height="549" rx="104.99" ry="104.99"/><path d="M444.51,1A104.61,104.61,0,0,1,549,105.49v339A104.61,104.61,0,0,1,444.51,549h-339A104.61,104.61,0,0,1,1,444.51v-339A104.61,104.61,0,0,1,105.49,1h339m0-1h-339A105.49,105.49,0,0,0,0,105.49v339A105.49,105.49,0,0,0,105.49,550h339A105.49,105.49,0,0,0,550,444.51v-339A105.49,105.49,0,0,0,444.51,0Z"/><rect class="cls-2" x="24" y="25" width="500" height="500" rx="105.49" ry="105.49"/><text class="cls-3" transform="translate(65.85 390.79)">K</text><text class="cls-4" transform="translate(298.71 346.07)">M</text><text class="cls-5" transform="translate(295.71 342.07)">M</text><text class="cls-6" transform="translate(61.85 385.79)">K</text></g></g></svg>